
<svg width="410px" height="139px" viewBox="0 0 410 139" version="1.1" xmlns="http://www.w3.org/2000/svg" xmlns:xlink="http://www.w3.org/1999/xlink">
<defs></defs>
<g id="Symbols" stroke="none" stroke-width="1" fill="none" fill-rule="evenodd">
<g id="AA-Logo-with-Text" transform="translate(0.000000, -1.000000)">
<g id="Group">
<path d="M182.2127,51.7436 L177.4017,40.8526 L172.6527,51.7436 L182.2127,51.7436 Z M183.1797,53.9836 L171.6517,53.9836 L169.2897,59.4036 L166.7157,59.4036 L176.2207,38.2176 L178.7337,38.2176 L188.2077,59.4036 L185.5727,59.4036 L183.1797,53.9836 Z" id="Fill-1" fill="#638595"></path>
<polygon id="Fill-2" fill="#638595" points="203.1151 38.2177 215.8291 55.4397 215.8291 38.2177 218.2201 38.2177 218.2201 59.4037 215.7351 59.4037 203.0261 42.2117 203.0261 59.4037 200.6051 59.4037 200.6051 38.2177"></polygon>
<polygon id="Fill-3" fill="#638595" points="241.2396 52.0493 241.2396 59.4033 238.8456 59.4033 238.8456 52.1113 230.6476 38.2173 233.1606 38.2173 240.0306 49.3233 246.8086 38.2173 249.2906 38.2173"></polygon>
<polygon id="Fill-4" fill="#638595" points="261.2962 38.2177 267.1082 56.6767 272.8582 38.2177 275.2812 38.2177 281.0892 56.6767 286.8422 38.2177 289.3552 38.2177 282.2402 59.4037 279.7612 59.4037 274.0412 41.4557 268.2612 59.4037 265.7762 59.4037 258.6952 38.2177"></polygon>
<polygon id="Fill-5" fill="#638595" points="303.9896 38.2177 303.9896 47.8137 316.7626 47.8137 316.7626 38.2177 319.1806 38.2177 319.1806 59.4037 316.7626 59.4037 316.7626 50.0237 303.9896 50.0237 303.9896 59.4037 301.5666 59.4037 301.5666 38.2177"></polygon>
<polygon id="Fill-6" fill="#638595" points="349.0453 38.2177 349.0453 40.4577 337.0873 40.4577 337.0873 47.5667 347.7733 47.5667 347.7733 49.7787 337.0873 49.7787 337.0873 57.1627 349.4373 57.1627 349.4373 59.4037 334.6663 59.4037 334.6663 38.2177"></polygon>
<g id="Group-31" transform="translate(0.000000, 0.290000)">
<path d="M371.4896,50.1557 C375.3366,50.1557 377.5146,48.4297 377.5146,45.1007 C377.5146,41.8627 375.3366,40.1677 371.4896,40.1677 L365.8646,40.1677 L365.8646,50.1557 L371.4896,50.1557 Z M377.3016,59.1137 L372.8516,52.3377 C372.4286,52.3647 371.9726,52.3957 371.4896,52.3957 L365.8646,52.3957 L365.8646,59.1137 L363.4386,59.1137 L363.4386,37.9277 L371.4896,37.9277 C376.7876,37.9277 379.8436,40.5317 379.8436,45.0367 C379.8436,48.5217 378.1216,50.9087 375.0606,51.8787 L380.0576,59.1137 L377.3016,59.1137 Z" id="Fill-7" fill="#638595"></path>
<polygon id="Fill-9" fill="#638595" points="408.7669 37.9277 408.7669 40.1677 396.8139 40.1677 396.8139 47.2767 407.4959 47.2767 407.4959 49.4887 396.8139 49.4887 396.8139 56.8727 409.1589 56.8727 409.1589 59.1137 394.3899 59.1137 394.3899 37.9277"></polygon>
<path d="M186.9349,89.5312 L180.9009,75.3092 L174.8649,89.5312 L186.9349,89.5312 Z M188.9939,94.3302 L172.8529,94.3302 L169.7879,101.5562 L164.1649,101.5562 L178.2939,69.5492 L183.8249,69.5492 L197.8179,101.5562 L192.0569,101.5562 L188.9939,94.3302 Z" id="Fill-11" fill="#0094D9"></path>
<path d="M228.3021,74.2119 C221.8991,74.2119 216.8681,79.1499 216.8681,85.4589 C216.8681,91.7709 221.8991,96.7539 228.3021,96.7539 C231.5041,96.7539 234.7941,95.2919 237.2181,92.9599 L240.4191,96.5259 C237.1731,99.7279 232.5541,101.7839 228.0281,101.7839 C218.6541,101.7839 211.3831,94.6969 211.3831,85.5069 C211.3831,76.4079 218.7441,69.4099 228.2081,69.4099 C232.7381,69.4099 237.2621,71.2859 240.3721,74.3489 L237.2181,78.2809 C234.8861,75.7659 231.5481,74.2119 228.3021,74.2119" id="Fill-13" fill="#0094D9"></path>
<path d="M272.2738,74.2119 C265.8718,74.2119 260.8408,79.1499 260.8408,85.4589 C260.8408,91.7709 265.8718,96.7539 272.2738,96.7539 C275.4758,96.7539 278.7658,95.2919 281.1898,92.9599 L284.3908,96.5259 C281.1418,99.7279 276.5268,101.7839 271.9998,101.7839 C262.6258,101.7839 255.3548,94.6969 255.3548,85.5069 C255.3548,76.4079 262.7158,69.4099 272.1798,69.4099 C276.7098,69.4099 281.2338,71.2859 284.3438,74.3489 L281.1898,78.2809 C278.8578,75.7659 275.5198,74.2119 272.2738,74.2119" id="Fill-15" fill="#0094D9"></path>
<polygon id="Fill-17" fill="#0094D9" points="325.5257 69.5488 325.5257 74.3958 308.0587 74.3958 308.0587 83.0828 323.6967 83.0828 323.6967 87.8858 308.0587 87.8858 308.0587 96.7088 326.0757 96.7088 326.0757 101.5568 302.6647 101.5568 302.6647 69.5488"></polygon>
<path d="M355.554,74.3955 C352.4,74.3955 350.34,75.5845 350.34,77.7335 C350.34,84.7285 367.624,80.9795 367.579,92.5015 C367.579,98.2185 362.549,101.7405 355.507,101.7405 C350.48,101.7405 345.722,99.6805 342.431,96.6655 L344.763,91.9995 C348.056,95.0165 352.169,96.6655 355.599,96.6655 C359.348,96.6655 361.59,95.2455 361.59,92.7775 C361.59,85.6425 344.304,89.6235 344.304,78.2365 C344.304,72.7495 349.015,69.3205 355.965,69.3205 C360.126,69.3205 364.195,70.6465 367.168,72.6115 L364.928,77.3665 C361.451,75.2625 357.978,74.3955 355.554,74.3955" id="Fill-19" fill="#0094D9"></path>
<path d="M396.7826,74.3955 C393.6286,74.3955 391.5696,75.5845 391.5696,77.7335 C391.5696,84.7285 408.8526,80.9795 408.8076,92.5015 C408.8076,98.2185 403.7776,101.7405 396.7356,101.7405 C391.7086,101.7405 386.9506,99.6805 383.6596,96.6655 L385.9916,91.9995 C389.2846,95.0165 393.3976,96.6655 396.8276,96.6655 C400.5766,96.6655 402.8196,95.2455 402.8196,92.7775 C402.8196,85.6425 385.5326,89.6235 385.5326,78.2365 C385.5326,72.7495 390.2436,69.3205 397.1946,69.3205 C401.3546,69.3205 405.4236,70.6465 408.3966,72.6115 L406.1566,77.3665 C402.6796,75.2625 399.2066,74.3955 396.7826,74.3955" id="Fill-21" fill="#0094D9"></path>
<path d="M141.8817,105.0664 C141.1067,96.0894 132.7577,84.0784 116.2577,78.9034 C109.7967,76.8754 102.7767,75.2954 95.3817,74.1644 C86.1407,56.1274 78.5147,32.8434 75.4067,12.9444 C74.9017,9.6984 74.5427,6.6304 74.3067,3.5504 L74.0907,0.7104 L67.7927,0.7104 C68.3867,21.2714 64.7407,51.0634 53.8017,70.4504 L54.3467,70.5564 C62.3507,56.9944 68.2987,42.7034 70.9387,22.7274 C74.4627,39.6074 80.6327,57.9054 87.9827,73.1794 C81.4237,72.4734 77.1577,72.4234 76.9077,72.4234 L65.0247,72.4234 C64.7437,72.4234 58.0377,72.3064 48.2277,73.6964 C40.3067,74.8144 32.6867,76.5694 25.5747,78.9144 C7.8487,84.7734 -1.4143,99.0414 0.1757,108.9014 C1.0067,114.0824 4.7887,117.3054 10.0417,117.3054 L10.0477,117.3054 C15.4557,117.3054 22.0137,114.0594 29.5407,107.6514 C36.3107,101.8864 42.8107,93.4884 48.9077,82.6944 L48.5077,82.8554 C43.0907,92.1154 34.4957,101.0914 28.6507,106.0664 C20.2887,113.1874 12.2397,112.7484 10.5807,112.3374 C8.9217,111.9204 6.6757,110.9804 6.2567,107.9234 C5.3757,101.4754 12.0347,89.8804 27.5057,84.7674 C32.4077,83.1504 37.5667,81.8274 42.9077,80.8154 C54.6027,78.7644 64.8577,78.5914 64.9687,78.5814 L76.8777,78.5814 C76.9447,78.5814 83.5777,78.6644 92.8907,79.9984 C100.5527,81.0984 107.7987,82.7054 114.4127,84.7844 C129.1447,89.4034 135.2367,99.7574 135.7367,105.5944 C135.8397,106.7724 135.8617,109.6134 133.8757,110.6354 C131.3067,111.9634 122.8947,113.8204 113.8737,106.1444 C108.8907,101.8984 99.0887,91.3874 94.3587,83.9334 L93.6917,83.9834 C99.4467,93.7714 106.0477,102.2984 112.3367,107.6514 C121.2047,115.1994 127.5477,117.2224 131.7937,117.2224 C133.9477,117.2224 135.5677,116.7004 136.6987,116.1164 C140.3727,114.2204 142.3097,110.0904 141.8817,105.0664" id="Fill-23" fill="#0094D9"></path>
<path d="M79.9178,14.0117 C102.9398,18.1527 122.3608,41.8757 126.8858,64.7587 L129.4538,64.0917 L132.7718,62.8687 C127.3718,37.1117 106.2478,17.0967 79.9178,13.3387 L79.9178,14.0117 Z" id="Fill-25" fill="#638595"></path>
<path d="M117.8924,117.0166 C107.4424,128.5886 87.7494,132.8356 70.9724,132.8356 C59.2934,132.8356 48.4884,129.2346 39.4534,123.1756 L36.1124,127.3326 L34.9484,127.6216 C45.1704,134.7816 57.5704,138.9996 70.9724,138.9996 C89.8864,138.9996 106.8394,130.6066 118.4234,117.4006 L117.8924,117.0166 Z" id="Fill-27" fill="#638595"></path>
<path d="M8.9964,83.1445 C8.9244,81.9715 8.8154,80.8095 8.8154,79.6255 C8.8154,56.1655 28.2174,32.2425 48.5104,23.5105 C47.6214,22.1715 47.0124,19.4975 46.6824,17.6075 C23.8764,27.1345 7.7824,49.5955 7.7824,75.8185 C7.7824,78.3975 7.9854,80.9265 8.2854,83.4215 L8.9964,83.1445 Z" id="Fill-29" fill="#638595"></path>
</g>
</g>
</g>
</g>
</svg>