<?xml version="1.0" encoding="UTF-8"?>
<svg width="130px" height="34px" viewBox="0 0 130 34" version="1.1" xmlns="http://www.w3.org/2000/svg" xmlns:xlink="http://www.w3.org/1999/xlink">
    <!-- Generator: Sketch 53 (72520) - https://sketchapp.com -->
    <title>Logo 32</title>
    <desc>Created with Sketch.</desc>
    <g id="Page-1" stroke="none" stroke-width="1" fill="none" fill-rule="evenodd">
        <g id="Logo-32">
            <g id="R3-Logo-Copy">
                <path d="M10.3070782,9.87602539 C10.6764467,9.49958496 10.9480411,9.14528809 11.1218616,8.81313477 L15.478237,0.719665527 C15.6593,0.387512207 15.6955126,0.169767253 15.5868748,0.0664306641 C15.4854795,-0.0442871094 15.268204,-0.0073811849 14.9350481,0.177148438 L7.01535309,4.62800293 C6.6821972,4.81991374 6.33817753,5.09670817 5.98329408,5.45838623 C5.61392559,5.83482666 5.34233111,6.18912354 5.16851065,6.52127686 L0.801271446,14.5926025 C0.612965942,14.9247559 0.573132085,15.1461914 0.681769876,15.2569092 C0.783165148,15.3602458 1.00044073,15.3196493 1.33359662,15.1351196 L9.27501915,10.7064087 C9.60817504,10.5144979 9.95219471,10.2377035 10.3070782,9.87602539 L10.3070782,9.87602539 Z" id="Shape" fill="#9823C6"></path>
                <path d="M28.6931823,12.9076519 C28.6352421,12.4795431 28.4722854,12.1289368 28.2043122,11.855833 L20.393255,3.8952251 C20.1252818,3.62212126 19.835581,3.50771289 19.5241527,3.552 C19.2054818,3.59628711 18.9556149,3.78819792 18.7745519,4.12773242 L14.4073127,12.2101299 C14.2262497,12.5422832 14.1683096,12.9261048 14.2334923,13.3615947 C14.2914324,13.7897035 14.4507678,14.1403097 14.7114985,14.4134136 L22.5225557,22.3629497 C22.7832864,22.6360535 23.0729872,22.7467713 23.391658,22.695103 C23.7103289,22.6508159 23.9601958,22.4625957 24.1412588,22.1304424 L28.508498,14.0591167 C28.689561,13.7195822 28.7511224,13.3357606 28.6931823,12.9076519 L28.6931823,12.9076519 Z" id="Shape" fill="#FFC34E"></path>
                <path d="M19.5364152,26.5716519 C19.5871129,26.2468797 19.4784751,25.9516323 19.2105019,25.6859097 L11.4103085,17.7253018 C11.1423353,17.4595791 10.7983156,17.297193 10.3782495,17.2381436 C9.95094082,17.1717129 9.57432981,17.2307624 9.24841644,17.415292 L1.31785769,21.8661465 C0.991944317,22.0506761 0.807260072,22.305327 0.763804956,22.6300991 C0.71310732,22.9474901 0.821745111,23.2427375 1.08971833,23.5158413 L8.90077551,31.4764492 C9.16874872,31.7495531 9.5127684,31.9156297 9.93283452,31.9746792 C10.3529006,32.0337287 10.7295117,31.9709886 11.0626675,31.786459 L18.9823625,27.3356045 C19.3082759,27.1510749 19.4929601,26.896424 19.5364152,26.5716519 L19.5364152,26.5716519 Z" id="Shape" fill="#FF3E3C"></path>
                <path d="M31.8139457,9.36672363 C31.8574008,9.0419515 31.748763,8.74301351 31.4880323,8.46990967 L23.6769751,0.520373535 C23.4162444,0.247269694 23.075846,0.0811930339 22.6557799,0.0221435547 C22.2284713,-0.0369059245 21.8518603,0.0258341471 21.5259469,0.21036377 L13.5953881,4.65014648 C13.2622322,4.83467611 13.0739267,5.08932699 13.0304716,5.41409912 C12.9870165,5.73887126 13.0992756,6.03780924 13.3672488,6.31091309 L21.178306,14.271521 C21.4462792,14.5446248 21.7902988,14.7107015 22.210365,14.769751 C22.6304311,14.8288005 23.0034208,14.7660604 23.3293342,14.5815308 L31.2490292,10.1306763 C31.5821851,9.94614665 31.7704906,9.69149577 31.8139457,9.36672363 L31.8139457,9.36672363 Z" id="Shape" fill="#26C4FF"></path>
                <path d="M31.9006003,16.7064307 C31.799205,16.5957129 31.5819294,16.6326188 31.2487736,16.8171484 L23.3182148,21.2458594 C22.9850589,21.4377702 22.637418,21.7145646 22.275292,22.0762427 C21.913166,22.4526831 21.6415716,22.80698 21.4605086,23.1391333 L17.1149969,31.2326025 C16.933934,31.5647559 16.8941001,31.7861914 16.9954954,31.8969092 C17.1041332,32.007627 17.3214087,31.9670304 17.6473221,31.7751196 L25.5670171,27.3242651 C25.8929305,27.1397355 26.2405714,26.8629411 26.6099399,26.4938818 C26.9648233,26.1248226 27.2364178,25.7705257 27.4247233,25.4309912 L31.7919625,17.3596655 C31.9730255,17.0275122 32.0092381,16.8097673 31.9006003,16.7064307 L31.9006003,16.7064307 Z" id="Shape" fill="#FE0FA6"></path>
                <path d="M18.2183019,19.7871167 C18.3993649,19.4549634 18.4609263,19.0711418 18.4029862,18.6356519 C18.345046,18.2075431 18.1820893,17.8569368 17.9141161,17.583833 L10.1030589,9.6232251 C9.83508572,9.35012126 9.54538494,9.23940348 9.23395661,9.29107178 C8.91528576,9.33535889 8.66541884,9.5235791 8.48435585,9.85573242 L4.11711665,17.9381299 C3.93605367,18.2776644 3.87811351,18.661486 3.94329619,19.0895947 C4.00123634,19.5177035 4.16057177,19.8683097 4.42130247,20.1414136 L12.2323596,28.0909497 C12.4930903,28.3640535 12.7827911,28.4784619 13.101462,28.4341748 C13.4201328,28.3898877 13.6699997,28.1979769 13.8510627,27.8584424 L18.2183019,19.7871167 L18.2183019,19.7871167 Z" id="Shape" fill="#98D843"></path>
            </g>
            <path d="M49.592,27 L49.592,5.688 C50.84,5.464 52.408,5.272 54.232,5.272 C56.792,5.272 58.744,5.944 59.928,7.096 C60.984,8.088 61.592,9.528 61.592,11.32 C61.592,13.176 61.08,14.552 60.088,15.64 C58.712,17.208 56.408,18.04 53.752,18.04 C52.76,18.04 51.896,18.008 51.128,17.784 L51.128,27 L49.592,27 Z M51.128,6.808 L51.128,16.44 C51.864,16.696 52.824,16.76 53.88,16.76 C57.752,16.76 60.056,14.904 60.056,11.48 C60.056,8.088 57.592,6.552 54.168,6.552 C52.76,6.552 51.704,6.68 51.128,6.808 Z M74.264,17.336 L74.264,23.352 C74.264,24.568 74.296,25.816 74.488,27 L73.08,27 L72.856,24.792 L72.792,24.792 C72.024,25.976 70.328,27.352 67.864,27.352 C64.76,27.352 63.352,25.176 63.352,23.128 C63.352,19.576 66.456,17.432 72.728,17.496 L72.728,17.08 C72.728,15.576 72.44,12.536 68.792,12.568 C67.448,12.568 66.04,12.92 64.92,13.72 L64.44,12.6 C65.848,11.672 67.576,11.288 68.952,11.288 C73.4,11.288 74.264,14.616 74.264,17.336 Z M72.728,22.072 L72.728,18.776 C69.368,18.68 64.952,19.192 64.952,22.872 C64.952,25.08 66.424,26.072 68.024,26.072 C70.584,26.072 72.056,24.504 72.568,23 C72.696,22.68 72.728,22.328 72.728,22.072 Z M79.192,33.336 L79.192,16.536 C79.192,14.616 79.16,13.112 79.064,11.64 L80.536,11.64 L80.632,14.552 L80.696,14.552 C81.816,12.536 83.704,11.288 86.36,11.288 C90.328,11.288 92.984,14.552 92.984,19.064 C92.984,24.536 89.72,27.352 86.008,27.352 C83.8,27.352 81.848,26.36 80.792,24.504 L80.728,24.504 L80.728,33.336 L79.192,33.336 Z M80.728,17.944 L80.728,20.952 C80.728,21.368 80.76,21.784 80.856,22.168 C81.496,24.536 83.544,26.072 85.912,26.072 C89.432,26.072 91.448,23.224 91.448,19.128 C91.448,15.672 89.528,12.568 86.04,12.568 C83.8,12.568 81.624,14.104 80.952,16.632 C80.856,17.048 80.728,17.528 80.728,17.944 Z M108.44,19.16 L97.112,19.16 C97.112,24.056 99.768,26.008 102.968,26.008 C105.208,26.008 106.36,25.56 107.224,25.144 L107.608,26.328 C107.032,26.648 105.464,27.32 102.776,27.32 C98.36,27.32 95.608,24.12 95.608,19.608 C95.608,14.488 98.552,11.288 102.52,11.288 C107.544,11.288 108.504,16.024 108.504,18.232 C108.504,18.648 108.504,18.872 108.44,19.16 Z M97.176,17.944 L106.904,17.944 C106.936,15.8 106.04,12.568 102.328,12.568 C98.936,12.568 97.464,15.576 97.176,17.944 Z M112.376,27 L112.376,16.248 C112.376,14.712 112.344,13.144 112.248,11.64 L113.656,11.64 L113.72,14.744 L113.816,14.744 C114.488,12.824 116.088,11.288 118.168,11.288 C118.392,11.288 118.616,11.32 118.808,11.352 L118.808,12.824 C118.584,12.76 118.36,12.76 118.072,12.76 C115.96,12.76 114.456,14.584 114.04,17.048 C113.944,17.496 113.912,18.008 113.912,18.52 L113.912,27 L112.376,27 Z M120.664,26.264 L121.208,24.984 C122.04,25.496 123.288,26.04 124.664,26.04 C127.096,26.04 128.248,24.728 128.248,23.128 C128.248,21.432 127.224,20.536 125.016,19.64 C122.488,18.68 121.112,17.304 121.112,15.448 C121.112,13.24 122.872,11.288 125.848,11.288 C127.256,11.288 128.472,11.704 129.24,12.248 L128.664,13.496 C128.12,13.112 127.128,12.568 125.592,12.568 C123.64,12.568 122.616,13.816 122.616,15.224 C122.616,16.824 123.704,17.528 125.784,18.392 C128.28,19.352 129.752,20.6 129.752,22.936 C129.752,25.56 127.704,27.32 124.568,27.32 C123.096,27.32 121.688,26.904 120.664,26.264 Z" id="Papers-Copy" fill="#4A4A4A"></path>
        </g>
    </g>
</svg>