<svg width="14px" height="14px" viewBox="0 0 14 14" version="1.1" xmlns="http://www.w3.org/2000/svg" xmlns:xlink="http://www.w3.org/1999/xlink">
    <g id="Page-1" stroke="none" stroke-width="1" fill="none" fill-rule="evenodd">
        <g id="r" transform="translate(-113.000000, -4.000000)">
            <g id="Group" transform="translate(113.000000, 4.000000)">
                <path d="M2.065,11.935 C3.41833333,13.3116667 5.06333333,14 7,14 C8.93666667,14 10.5933333,13.3116667 11.97,11.935 C13.3233333,10.5583333 14,8.91333333 14,7 C14,5.06333333 13.3233333,3.40666667 11.97,2.03 C10.5933333,0.676666667 8.93666667,0 7,0 C5.06333333,0 3.41833333,0.676666667 2.065,2.03 C0.688333333,3.40666667 0,5.06333333 0,7 C0,8.91333333 0.688333333,10.5583333 2.065,11.935 L2.065,11.935 Z" id="Shape" fill="#CCCCCC"></path>
                <path d="M4,4 L7.02752294,7.02752294 L10,4 M10,10 L7.02752294,7.02752294 L4,10" id="RedCloseX_0_Layer0_0_MEMBER_0_1_STROKES" stroke="#FFFFFF" stroke-width="1.5"></path>
            </g>
        </g>
    </g>
</svg>