<svg width="83px" height="71px" viewBox="0 0 83 71" version="1.1" xmlns="http://www.w3.org/2000/svg" xmlns:xlink="http://www.w3.org/1999/xlink"><defs><polygon id="path-1" points="1.17471376e-05 0.186711864 37.9839437 0.186711864 37.9839437 30.8309543 1.17471376e-05 30.8309543"></polygon></defs><g id="Page-1" stroke="none" stroke-width="1" fill="none" fill-rule="evenodd"><g id="Sidebar-Error" transform="translate(-55.000000, -864.000000)"><g id="Sidebar" transform="translate(36.000000, 106.000000)"><g id="Group-2" transform="translate(19.000000, 758.000000)"><g id="AA-Logo" transform="translate(23.000000, 0.000000)"><g id="Group-3"><mask id="mask-2" fill="white"><use xlink:href="#path-1"></use></mask><g id="Clip-2"></g><path d="M37.9683423,27.6142222 C37.7609479,25.2548297 35.5267085,22.098022 31.1112155,20.7378954 C29.3822155,20.2048835 27.5036239,19.7896178 25.5246803,19.4923612 C23.0517366,14.7517617 21.0109761,8.63211212 20.1792577,3.40212987 C20.0441169,2.54899542 19.9480465,1.74264407 19.8848915,0.9331388 L19.8270887,0.186711864 L18.1417085,0.186711864 C18.3006662,5.59068518 17.3249761,13.4208089 14.397638,18.516224 L14.5434831,18.5440836 C16.6853986,14.9796322 18.2771169,11.2235803 18.9835958,5.9733604 C19.926638,10.4098698 21.5777648,15.219067 23.5446662,19.2334772 C21.7894408,19.0479218 20.6478352,19.0347805 20.5809338,19.0347805 L17.4009761,19.0347805 C17.3257789,19.0347805 15.5312155,19.0040298 12.9060042,19.3693585 C10.7863,19.6631984 8.74714507,20.1244587 6.8439338,20.7407865 C2.10035634,22.2806863 -0.378474648,26.0306932 0.0470183094,28.6221614 C0.269398591,29.9838649 1.2814831,30.8309543 2.68721549,30.8309543 L2.68882113,30.8309543 C4.13603239,30.8309543 5.89099014,29.9778199 7.90525775,28.2936284 C9.71694789,26.7784343 11.4563845,24.5712183 13.0879761,21.7342703 L12.9809338,21.7765853 C11.5313141,24.2103577 9.23124366,26.5694873 7.66708873,27.8770486 C5.42937042,29.7486352 3.27541268,29.6332545 2.83145493,29.5252328 C2.38749718,29.4156342 1.78645493,29.1685774 1.67432817,28.3651172 C1.43856761,26.6704126 3.22055352,23.6229407 7.36068028,22.2791094 C8.6724831,21.8541191 10.0530606,21.5063998 11.4823423,21.2404195 C14.6119901,20.7013626 17.3562859,20.6558936 17.3859901,20.6532653 L20.5729056,20.6532653 C20.5908352,20.6532653 22.3658634,20.6750799 24.8580746,21.0256903 C26.908469,21.3147994 28.8475394,21.7371614 30.6174831,22.2835774 C34.5598493,23.4975725 36.1901028,26.2188769 36.3239056,27.7529945 C36.351469,28.062604 36.3573563,28.8092937 35.8258915,29.0779023 C35.1384127,29.4269358 32.8873141,29.9150044 30.4732437,27.897549 C29.1397648,26.7815882 26.5166944,24.01902 25.2509197,22.0599122 L25.0724268,22.0730535 C26.6124972,24.6455981 28.378962,26.8867187 30.0619338,28.2936284 C32.4350606,30.2774419 34.1324831,30.8091397 35.2687366,30.8091397 C35.8451592,30.8091397 36.2786803,30.6719443 36.5813423,30.5184537 C37.5645254,30.0201349 38.0828775,28.9346619 37.9683423,27.6142222" id="Fill-1" fill="#0094D9" mask="url(#mask-2)"></path></g><path d="M21,4.18323609 C27.0980815,5.31069623 32.2423279,11.7697005 33.4409127,18 L34.1211261,17.8183975 L35,17.4854142 C33.5696447,10.4726177 27.9743066,5.02318164 21,4 L21,4.18323609 Z" id="Fill-4" fill="#638595"></path><path d="M30.8600539,31 C28.1059359,34.1584406 22.9158071,35.3176091 18.4941959,35.3176091 C15.4161725,35.3176091 12.5684936,34.3347587 10.1873016,32.6810262 L9.30677448,33.8156303 L9,33.8945094 C11.6940282,35.8487468 14.9620725,37 18.4941959,37 C23.4790177,37 27.9470141,34.7092299 31,31.1048083 L30.8600539,31 Z" id="Fill-6" fill="#638595"></path><path d="M2.32788254,22.924241 C2.30843646,22.6034278 2.27899725,22.2856231 2.27899725,21.9618014 C2.27899725,15.5455374 7.519176,9.00264381 13,6.61445893 C12.7598949,6.24824505 12.5954135,5.5169113 12.5062856,5 C6.34673934,7.60561583 2,13.7486553 2,20.9205944 C2,21.6259458 2.05482715,22.3176224 2.13585248,23 L2.32788254,22.924241 Z" id="Fill-8" fill="#638595"></path></g><g id="Group" transform="translate(0.000000, 49.000000)"><g id="ACCESS" transform="translate(0.000000, 10.000000)" fill="#0094D9"><path d="M7.76978245,7.34865882 L5.72561102,2.32912941 L3.68076204,7.34865882 L7.76978245,7.34865882 Z M8.46732122,9.04242353 L2.99914571,9.04242353 L1.96079878,11.5927765 L0.0558640816,11.5927765 L4.84242327,0.296188235 L6.71619061,0.296188235 L11.4566763,11.5927765 L9.50499061,11.5927765 L8.46732122,9.04242353 Z" id="Fill-11"></path><path d="M21.7839767,1.94184706 C19.6147971,1.94184706 17.9104176,3.68467059 17.9104176,5.91137647 C17.9104176,8.13914118 19.6147971,9.89784706 21.7839767,9.89784706 C22.8687359,9.89784706 23.9833073,9.38184706 24.8044992,8.55878824 L25.8889196,9.81737647 C24.7892543,10.9474941 23.2244502,11.6731412 21.6911522,11.6731412 C18.5154706,11.6731412 16.0522339,9.17184706 16.0522339,5.92831765 C16.0522339,2.71690588 18.5459604,0.247023529 21.7521318,0.247023529 C23.2867849,0.247023529 24.8194053,0.909141176 25.8729971,1.9902 L24.8044992,3.37796471 C24.0144747,2.49031765 22.883642,1.94184706 21.7839767,1.94184706" id="Fill-13"></path><path d="M36.6805118,1.94184706 C34.511671,1.94184706 32.8072914,3.68467059 32.8072914,5.91137647 C32.8072914,8.13914118 34.511671,9.89784706 36.6805118,9.89784706 C37.765271,9.89784706 38.8798424,9.38184706 39.7010343,8.55878824 L40.7854547,9.81737647 C39.6847731,10.9474941 38.1213241,11.6731412 36.5876873,11.6731412 C33.4120057,11.6731412 30.948769,9.17184706 30.948769,5.92831765 C30.948769,2.71690588 33.4424955,0.247023529 36.6486669,0.247023529 C38.18332,0.247023529 39.7159404,0.909141176 40.7695322,1.9902 L39.7010343,3.37796471 C38.9110098,2.49031765 37.7801771,1.94184706 36.6805118,1.94184706" id="Fill-15"></path><polygon id="Fill-17" points="54.7209514 0.296047059 54.7209514 2.00675294 48.8035596 2.00675294 48.8035596 5.07275294 54.101331 5.07275294 54.101331 6.76792941 48.8035596 6.76792941 48.8035596 9.88192941 54.907278 9.88192941 54.907278 11.5929882 46.9762045 11.5929882 46.9762045 0.296047059"></polygon><path d="M64.8938041,2.00664706 C63.8253061,2.00664706 63.1274286,2.42629412 63.1274286,3.18476471 C63.1274286,5.65358824 68.9828245,4.33041176 68.9675796,8.397 C68.9675796,10.4147647 67.2635388,11.6578235 64.8778816,11.6578235 C63.1748571,11.6578235 61.5629633,10.9307647 60.4480531,9.86664706 L61.2380776,8.21982353 C62.3536653,9.28464706 63.747049,9.86664706 64.909049,9.86664706 C66.1791184,9.86664706 66.9386531,9.36547059 66.9386531,8.49441176 C66.9386531,5.97617647 61.0825796,7.38123529 61.0825796,3.36229412 C61.0825796,1.42570588 62.678551,0.215470588 65.0330408,0.215470588 C66.4426857,0.215470588 67.8211633,0.683470588 68.8283429,1.377 L68.0694857,3.05523529 C66.8915633,2.31264706 65.7149959,2.00664706 64.8938041,2.00664706" id="Fill-19"></path><path d="M78.8610441,2.00664706 C77.7925461,2.00664706 77.0950073,2.42629412 77.0950073,3.18476471 C77.0950073,5.65358824 82.9500645,4.33041176 82.9348196,8.397 C82.9348196,10.4147647 81.2307788,11.6578235 78.8451216,11.6578235 C77.1420971,11.6578235 75.5302033,10.9307647 74.4152931,9.86664706 L75.2053176,8.21982353 C76.3209053,9.28464706 77.714289,9.86664706 78.876289,9.86664706 C80.1463584,9.86664706 80.9062318,9.36547059 80.9062318,8.49441176 C80.9062318,5.97617647 75.0498196,7.38123529 75.0498196,3.36229412 C75.0498196,1.42570588 76.645791,0.215470588 79.0006196,0.215470588 C80.4099257,0.215470588 81.7884033,0.683470588 82.7955829,1.377 L82.0367257,3.05523529 C80.8588033,2.31264706 79.6822359,2.00664706 78.8610441,2.00664706" id="Fill-21"></path></g><g id="ANYWHERE" transform="translate(1.000000, 0.000000)" fill="#638595"><path d="M5.44853033,4.99767273 L3.83171885,1.03730909 L2.23574344,4.99767273 L5.44853033,4.99767273 Z M5.77350574,5.81221818 L1.8993418,5.81221818 L1.10555492,7.78312727 L0.240522131,7.78312727 L3.43482541,0.0791272727 L4.2793582,0.0791272727 L7.46324344,7.78312727 L6.57771066,7.78312727 L5.77350574,5.81221818 Z" id="Fill-1"></path><polygon id="Fill-2" points="12.4731074 0.0791636364 16.7458451 6.34170909 16.7458451 0.0791636364 17.5493779 0.0791636364 17.5493779 7.78316364 16.7142549 7.78316364 12.4431975 1.53152727 12.4431975 7.78316364 11.6295828 7.78316364 11.6295828 0.0791636364"></polygon><polygon id="Fill-3" points="25.2854393 5.10883636 25.2854393 7.78301818 24.4808984 7.78301818 24.4808984 5.13138182 21.7258328 0.0790181818 22.5703656 0.0790181818 24.8791361 4.11756364 27.1569885 0.0790181818 27.9911033 0.0790181818"></polygon><polygon id="Fill-4" points="32.0257721 0.0791636364 33.9789852 6.79152727 35.9113623 0.0791636364 36.7256492 0.0791636364 38.677518 6.79152727 40.6109033 0.0791636364 41.4554361 0.0791636364 39.0643295 7.78316364 38.231223 7.78316364 36.3089279 1.25661818 34.3664689 7.78316364 33.5313459 7.78316364 31.1516656 0.0791636364"></polygon><polygon id="Fill-5" points="46.3735541 0.0791636364 46.3735541 3.56861818 50.6661197 3.56861818 50.6661197 0.0791636364 51.4787262 0.0791636364 51.4787262 7.78316364 50.6661197 7.78316364 50.6661197 4.37225455 46.3735541 4.37225455 46.3735541 7.78316364 45.5592672 7.78316364 45.5592672 0.0791636364"></polygon><polygon id="Fill-6" points="61.5152238 0.0791636364 61.5152238 0.893709091 57.4965516 0.893709091 57.4965516 3.4788 61.0877484 3.4788 61.0877484 4.28316364 57.4965516 4.28316364 57.4965516 6.96825455 61.6469615 6.96825455 61.6469615 7.78316364 56.6829369 7.78316364 56.6829369 0.0791636364"></polygon><path d="M69.0579803,4.52570909 C70.3508246,4.52570909 71.0827754,3.89807273 71.0827754,2.68752727 C71.0827754,1.51007273 70.3508246,0.893709091 69.0579803,0.893709091 L67.1676115,0.893709091 L67.1676115,4.52570909 L69.0579803,4.52570909 Z M71.0111934,7.78316364 L69.5157016,5.31916364 C69.3735459,5.32898182 69.2203,5.34025455 69.0579803,5.34025455 L67.1676115,5.34025455 L67.1676115,7.78316364 L66.3523164,7.78316364 L66.3523164,0.0791636364 L69.0579803,0.0791636364 C70.8384557,0.0791636364 71.8654721,1.02607273 71.8654721,2.66425455 C71.8654721,3.93152727 71.2867672,4.79952727 70.2580705,5.15225455 L71.9373902,7.78316364 L71.0111934,7.78316364 Z" id="Fill-7"></path><polygon id="Fill-9" points="81.5855975 0.0791636364 81.5855975 0.893709091 77.5686057 0.893709091 77.5686057 3.4788 81.1584582 3.4788 81.1584582 4.28316364 77.5686057 4.28316364 77.5686057 6.96825455 81.7173352 6.96825455 81.7173352 7.78316364 76.7539828 7.78316364 76.7539828 0.0791636364"></polygon></g></g></g></g></g></g></svg>