<?xml version="1.0" encoding="UTF-8"?>
<svg width="21px" height="20px" viewBox="0 0 21 20" version="1.1" xmlns="http://www.w3.org/2000/svg" xmlns:xlink="http://www.w3.org/1999/xlink">
    <!-- Generator: Sketch 50 (54983) - http://www.bohemiancoding.com/sketch -->
    <title>AA Logo</title>
    <desc>Created with Sketch.</desc>
    <defs>
        <polygon id="path-1" points="6.28428527e-06 0.100667963 20.3192796 0.100667963 20.3192796 16.6228825 6.28428527e-06 16.6228825"></polygon>
    </defs>
    <g id="Symbols" stroke="none" stroke-width="1" fill="none" fill-rule="evenodd">
        <g id="AA-Logo">
            <g>
                <g id="Group-3">
                    <mask id="mask-2" fill="white">
                        <use xlink:href="#path-1"></use>
                    </mask>
                    <g id="Clip-2"></g>
                    <path d="M20.3109337,14.8885424 C20.1999894,13.6164473 19.0047966,11.9144162 16.6427555,11.1810875 C15.7178375,10.8937077 14.7128963,10.6698122 13.6542725,10.5095427 C12.3313863,7.953591 11.2396938,4.65410781 10.7947712,1.83429953 C10.7224784,1.37432176 10.6710861,0.939567658 10.6373018,0.503113087 L10.6063805,0.100667963 L9.70479658,0.100667963 C9.78983006,3.01428563 9.26789056,7.23599166 7.70192888,9.98324646 L7.77994782,9.9982673 C8.92575248,8.07645013 9.77723251,6.05132926 10.1551591,3.22060961 C10.6596338,5.61260739 11.542894,8.20554432 12.595076,10.3699622 C11.6561288,10.2699178 11.0454338,10.2628325 11.0096453,10.2628325 L9.30854629,10.2628325 C9.26832002,10.2628325 8.30832925,10.2462528 6.90398846,10.4432242 C5.77006557,10.6016516 4.67923205,10.8503457 3.66112076,11.1826463 C1.12357285,12.0129019 -0.202462711,14.0347635 0.0251521589,15.431985 C0.144113138,16.1661639 0.685521589,16.6228825 1.43750958,16.6228825 L1.43836851,16.6228825 C2.21254537,16.6228825 3.15134934,16.1629047 4.22886955,15.2548525 C5.19802217,14.4379172 6.1285232,13.24787 7.00133318,11.7182951 L6.94407158,11.7411098 C6.16860633,13.0533076 4.93819764,14.3252609 4.10146248,15.0302484 C2.90440868,16.039337 1.75216209,15.9771281 1.51466959,15.9188869 C1.2771771,15.8597955 0.955653198,15.7265918 0.895671669,15.2933965 C0.76955299,14.379676 1.72281552,12.7365946 3.93755114,12.0120517 C4.63929208,11.782913 5.3778236,11.595436 6.14240914,11.4520295 C7.81659524,11.1613904 9.28463958,11.1368752 9.30052967,11.1354582 L11.0053507,11.1354582 C11.014942,11.1354582 11.9644826,11.1472198 13.2976758,11.3362556 C14.3945218,11.4921323 15.4318157,11.7198538 16.3786363,12.0144607 C18.4875812,12.6690008 19.3596754,14.1362251 19.4312524,14.9633632 C19.4459972,15.1302929 19.4491466,15.5328797 19.1648428,15.6777033 C18.7970801,15.8658889 17.5928686,16.129037 16.3014763,15.0413015 C15.5881399,14.4396177 14.1849444,12.9501456 13.5078259,11.8938689 L13.4123422,11.9009542 C14.2361935,13.2879728 15.1811531,14.4963001 16.0814486,15.2548525 C17.3509384,16.3244496 18.2589642,16.6111209 18.8667961,16.6111209 C19.1751498,16.6111209 19.4070593,16.5371503 19.5689665,16.454394 C20.0949143,16.1857194 20.3722036,15.6004735 20.3109337,14.8885424" id="Fill-1" fill="#0094D9" mask="url(#mask-2)"></path>
                </g>
                <path d="M11.3114754,2.22770052 C14.5961563,2.82179544 17.3670619,6.22525202 18.0126696,9.50819672 L18.3790609,9.41250454 L18.852459,9.23704497 C18.08201,5.54177745 15.0681277,2.67029478 11.3114754,2.13114754 L11.3114754,2.22770052 Z" id="Fill-4" fill="#638595"></path>
                <path d="M16.8091202,16.7213115 C15.3109785,18.4472353 12.4877341,19.0806607 10.0825358,19.0806607 C8.40820114,19.0806607 6.85916565,18.543584 5.56388238,17.6399051 L5.08490713,18.2599072 L4.91803279,18.3030106 C6.38348774,19.3708999 8.16118697,20 10.0825358,20 C12.7941005,20 15.2245308,18.748213 16.8852459,16.7785837 L16.8091202,16.7213115 Z" id="Fill-6" fill="#638595"></path>
                <path d="M1.32345412,12.0911291 C1.31302105,11.921665 1.29722654,11.75379 1.29722654,11.5827366 C1.29722654,8.19345328 4.10864882,4.73727997 7.04918033,3.47576155 C6.92036091,3.28231524 6.83211453,2.8960005 6.7842963,2.62295082 C3.4796217,3.99932348 1.14754098,7.24428058 1.14754098,11.0327366 C1.14754098,11.4053266 1.17695644,11.7706931 1.22042756,12.1311475 L1.32345412,12.0911291 Z" id="Fill-8" fill="#638595"></path>
            </g>
        </g>
    </g>
</svg>