<?xml version="1.0" encoding="UTF-8"?>
<svg width="502px" height="512px" viewBox="0 0 502 512" version="1.1" xmlns="http://www.w3.org/2000/svg" xmlns:xlink="http://www.w3.org/1999/xlink">
    <!-- Generator: Sketch 53 (72520) - https://sketchapp.com -->
    <title>Logo 64px</title>
    <desc>Created with Sketch.</desc>
    <g id="Page-1" stroke="none" stroke-width="1" fill="none" fill-rule="evenodd">
        <g id="readucbe-icon" transform="translate(-10.000000, 0.000000)">
            <g id="Logo-64px">
                <g id="R3-Logo">
                    <path d="M164.913251,158.016406 C170.823146,151.993359 175.168658,146.324609 177.949786,141.010156 L247.651792,11.5146484 C250.5488,6.20019531 251.128202,2.71627604 249.389997,1.06289063 C247.767673,-0.70859375 244.291263,-0.118098958 238.960769,2.834375 L112.24565,74.0480469 C106.915155,77.1186198 101.41084,81.5473307 95.7327053,87.3341797 C89.8228094,93.3572266 85.4772978,99.0259766 82.6961703,104.34043 L12.8203431,233.481641 C9.80745507,238.796094 9.17011336,242.339062 10.908318,244.110547 C12.5306424,245.763932 16.0070517,245.114388 21.337546,242.161914 L148.400306,171.302539 C153.730801,168.231966 159.235115,163.803255 164.913251,158.016406 L164.913251,158.016406 Z" id="Shape" fill="#9823C6"></path>
                    <path d="M459.090916,206.52243 C458.163874,199.67269 455.556567,194.06299 451.268995,189.693328 L326.29208,62.3236016 C322.004509,57.9539401 317.369296,56.1234062 312.386443,56.832 C307.287709,57.5405937 303.289839,60.6111667 300.392831,66.0437187 L230.517004,195.362078 C227.619996,200.676531 226.692953,206.817677 227.735876,213.785516 C228.662919,220.635255 231.212286,226.244956 235.383977,230.614617 L360.360892,357.807195 C364.532583,362.176857 369.167795,363.948341 374.266529,363.121648 C379.365262,362.413055 383.363133,359.401531 386.260141,354.087078 L456.135968,224.945867 C459.032976,219.513315 460.017959,213.372169 459.090916,206.52243 L459.090916,206.52243 Z" id="Shape" fill="#FFC34E"></path>
                    <path d="M312.582644,425.14643 C313.393806,419.950076 311.655602,415.226117 307.36803,410.974555 L182.564936,283.604828 C178.277364,279.353266 172.773049,276.755089 166.051991,275.810297 C159.215053,274.747406 153.189277,275.692198 147.974663,278.644672 L21.085723,349.858344 C15.8711091,352.810818 12.9161612,356.885232 12.2208793,362.081586 C11.4097171,367.159841 13.1479218,371.883799 17.4354933,376.253461 L142.412408,503.623187 C146.69998,507.992849 152.204294,510.650076 158.925352,511.594867 C165.64641,512.539659 171.672186,511.535818 177.002681,508.583344 L303.7178,437.369672 C308.932414,434.417198 311.887362,430.342784 312.582644,425.14643 L312.582644,425.14643 Z" id="Shape" fill="#FF3E3C"></path>
                    <path d="M509.023131,149.867578 C509.718413,144.671224 507.980208,139.888216 503.808517,135.518555 L378.831602,8.32597656 C374.659911,3.9563151 369.213537,1.29908854 362.492479,0.354296875 C355.65554,-0.590494792 349.629764,0.413346354 344.41515,3.36582031 L217.52621,74.4023437 C212.195716,77.3548177 209.182828,81.4292318 208.487546,86.6255859 C207.792264,91.8219401 209.588409,96.6049479 213.87598,100.974609 L338.852895,228.344336 C343.140467,232.713997 348.644781,235.371224 355.365839,236.316016 C362.086897,237.260807 368.054733,236.256966 373.269347,233.304492 L499.984467,162.09082 C505.314961,159.138346 508.327849,155.063932 509.023131,149.867578 L509.023131,149.867578 Z" id="Shape" fill="#26C4FF"></path>
                    <path d="M510.409605,267.302891 C508.78728,265.531406 505.310871,266.121901 499.980377,269.074375 L373.091437,339.93375 C367.760943,343.004323 362.198688,347.433034 356.404672,353.219883 C350.610657,359.24293 346.265145,364.91168 343.368137,370.226133 L273.839951,499.721641 C270.942943,505.036094 270.305602,508.579062 271.927926,510.350547 C273.666131,512.122031 277.14254,511.472487 282.357154,508.401914 L409.072273,437.188242 C414.286887,434.235768 419.849142,429.807057 425.759038,423.902109 C431.437173,417.997161 435.782685,412.328411 438.795573,406.895859 L508.6714,277.754648 C511.568408,272.440195 512.147809,268.956276 510.409605,267.302891 L510.409605,267.302891 Z" id="Shape" fill="#FE0FA6"></path>
                    <path d="M291.492831,316.593867 C294.389839,311.279414 295.374821,305.138268 294.447779,298.17043 C293.520736,291.32069 290.913429,285.71099 286.625858,281.341328 L161.648943,153.971602 C157.361372,149.60194 152.726159,147.830456 147.743306,148.657148 C142.644572,149.365742 138.646701,152.377266 135.749694,157.691719 L65.8738664,287.010078 C62.9768587,292.44263 62.0498162,298.583776 63.092739,305.433516 C64.0197815,312.283255 66.5691483,317.892956 70.7408395,322.262617 L195.717754,449.455195 C199.889445,453.824857 204.524658,455.655391 209.623392,454.946797 C214.722125,454.238203 218.719996,451.16763 221.617004,445.735078 L291.492831,316.593867 L291.492831,316.593867 Z" id="Shape" fill="#98D843"></path>
                </g>
            </g>
        </g>
    </g>
</svg>