<svg width="15px" height="16px" viewBox="0 0 15 16" version="1.1" xmlns="http://www.w3.org/2000/svg" xmlns:xlink="http://www.w3.org/1999/xlink"><defs></defs><g id="Results" stroke="none" stroke-width="1" fill="none" fill-rule="evenodd"><g id="Dimensions-RC-Buttons" transform="translate(-535.000000, -296.000000)"><g id="Request" transform="translate(532.000000, 294.000000)"><g id="Cart-Plus" transform="translate(3.000000, 2.000000)"><polygon id="Path" fill="#00CC00" points="8.78571429 2.85714286 8.78571429 0 7.35714286 0 7.35714286 2.85714286 4.5 2.85714286 4.5 4.28571429 7.35714286 4.28571429 7.35714286 7.14285714 8.78571429 7.14285714 8.78571429 4.28571429 11.6428571 4.28571429 11.6428571 2.85714286"></polygon><path d="M4.66666667,13 C3.93333333,13 3.34,13.6 3.34,14.3333333 C3.34,15.0666667 3.93333333,15.6666667 4.66666667,15.6666667 C5.4,15.6666667 6,15.0666667 6,14.3333333 C6,13.6 5.4,13 4.66666667,13 Z M11.3333333,13 C10.6,13 10.0066667,13.6 10.0066667,14.3333333 C10.0066667,15.0666667 10.6,15.6666667 11.3333333,15.6666667 C12.0666667,15.6666667 12.6666667,15.0666667 12.6666667,14.3333333 C12.6666667,13.6 12.0666667,13 11.3333333,13 Z M4.78,10.8333333 L4.8,10.7533333 L5.4,9.66666667 L10.3666667,9.66666667 C10.8666667,9.66666667 11.3066667,9.39333333 11.5333333,8.98 L14.1066667,4.30666667 L12.9466667,3.66666667 L12.94,3.66666667 L12.2066667,5 L10.3666667,8.33333333 L5.68666667,8.33333333 L5.6,8.15333333 L4.10666667,5 L3.47333333,3.66666667 L2.84666667,2.33333333 L0.666666667,2.33333333 L0.666666667,3.66666667 L2,3.66666667 L4.4,8.72666667 L3.5,10.36 C3.39333333,10.5466667 3.33333333,10.7666667 3.33333333,11 C3.33333333,11.7333333 3.93333333,12.3333333 4.66666667,12.3333333 L12.6666667,12.3333333 L12.6666667,11 L4.94666667,11 C4.86,11 4.78,10.9266667 4.78,10.8333333 Z" id="Shape" fill="#999999" fill-rule="nonzero"></path></g></g></g></g></svg>