<svg xmlns="http://www.w3.org/2000/svg" width="22" height="20" viewBox="0 0 22 20">
    <path fill="currentColor" fill-rule="nonzero" d="M13.835 2.343L11.637 4.54a5.002 5.002 0 0 0-5.597 5.597l-3.395 3.396A11.872 11.872 0 0 1 0 9.5C1.73 5.11 6 2 11 2c.977 0 1.927.119 2.835.343zm5.44 3.045A11.873 11.873 0 0 1 22 9.5c-1.73 4.39-6 7.5-11 7.5-1.023 0-2.016-.13-2.962-.375l2.185-2.185a5.002 5.002 0 0 0 5.717-5.717l3.335-3.335zm-5.778 5.778l-.831.831c.329-.22.612-.502.831-.831zM18.217.16l2.122 2.121-16.97 16.971-2.122-2.121L18.217.162z"/>
</svg>
